<svg width="37" height="37" viewBox="0 0 37 37" fill="none" xmlns="http://www.w3.org/2000/svg">
<path d="M12.8729 4.625C14.6921 4.36291 16.6192 6.35166 17.1742 9.09583C17.7292 11.8246 16.7271 14.2604 14.9079 14.5379C13.1042 14.8154 11.1617 12.8267 10.5913 10.0825C10.0209 7.35375 11.0538 4.91791 12.8729 4.625ZM23.8959 4.625C25.7304 4.91791 26.7479 7.35375 26.2084 10.0825C25.6225 12.8267 23.6954 14.8154 21.8763 14.5379C20.0417 14.2604 19.0396 11.8246 19.61 9.09583C20.165 6.35166 22.0921 4.36291 23.8959 4.625ZM4.62502 11.7167C6.38252 10.9612 8.7721 12.3333 10.0209 14.7229C11.1925 17.1587 10.7917 19.7179 9.0496 20.4733C7.30752 21.2287 4.93335 19.8721 3.71544 17.4517C2.49752 15.0312 2.92919 12.4567 4.62502 11.7167ZM32.375 11.7167C34.0709 12.4567 34.5025 15.0312 33.2846 17.4517C32.0667 19.8721 29.6925 21.2287 27.9504 20.4733C26.2084 19.7179 25.8075 17.1587 26.9792 14.7229C28.2279 12.3333 30.6175 10.9612 32.375 11.7167ZM29.8004 28.3358C29.8621 29.785 28.7521 31.3883 27.4263 31.9896C24.6667 33.2537 21.3984 30.6329 18.3304 30.6329C15.2625 30.6329 11.9634 33.3617 9.25002 31.9896C7.70835 31.2342 6.6446 29.23 6.84502 27.565C7.12252 25.2679 9.8821 24.0346 11.5163 22.3542C13.69 20.1804 15.2317 16.095 18.3304 16.095C21.4138 16.095 23.0479 20.1187 25.1292 22.3542C26.8404 24.235 29.6925 25.8229 29.8004 28.3358Z" fill="#C3C3C3"/>
</svg>
